<?xml version="1.0" encoding="utf-8"?>
<!-- Generator: Adobe Illustrator 16.0.0, SVG Export Plug-In . SVG Version: 6.00 Build 0)  -->
<!DOCTYPE svg PUBLIC "-//W3C//DTD SVG 1.1//EN" "http://www.w3.org/Graphics/SVG/1.1/DTD/svg11.dtd">
<svg version="1.1" id="Layer_1" xmlns="http://www.w3.org/2000/svg" xmlns:xlink="http://www.w3.org/1999/xlink" x="0px" y="0px"
	 width="1920px" height="1080px" viewBox="0 0 1920 1080" enable-background="new 0 0 1920 1080" xml:space="preserve">
<rect y="0.5" display="none" fill="#FFFFFF" stroke="#000000" stroke-miterlimit="10" width="1920" height="1080"/>
<g>
	<path fill="#191919" d="M371.174,728.356c11.857,0,22.535-0.446,32.028-1.335c9.481-0.889,18.086-1.917,25.803-3.115
		l51.602-214.418h138.796l-74.736,308.729c-16.613,6.535-40.636,12.899-72.067,19.13c-31.446,6.225-71.483,9.339-120.11,9.339
		c-41.524,0-78.156-6.087-109.878-18.24c-31.737-12.147-58.278-29.499-79.63-52.046c-21.353-22.535-37.367-49.822-48.044-81.854
		c-10.677-32.029-16.015-68.201-16.015-108.546c0-46.263,8.146-92.223,24.467-137.903c16.307-45.667,40.482-86.44,72.511-122.335
		c32.029-35.88,71.761-65.089,119.221-87.637c47.448-22.534,102.012-33.809,163.708-33.809c28.47,0,58.568,4.156,90.305,12.455
		c31.724,8.314,60.346,20.769,85.856,37.369l-49.823,107.654c-20.769-13.04-42.859-22.826-66.283-29.361
		c-23.439-6.519-46.419-9.786-68.953-9.786c-36.186,0-68.368,6.825-96.533,20.463c-28.178,13.651-52.048,32.182-71.622,55.607
		c-19.574,23.438-34.407,50.574-44.486,81.408c-10.092,30.848-15.125,63.475-15.125,97.868c0,52.2,10.816,90.306,32.475,114.327
		C296.285,716.346,328.467,728.356,371.174,728.356z"/>
	<path fill="#191919" d="M851.607,847.575c-36.188,0-69.397-5.935-99.648-17.792c-30.25-11.856-56.357-28.915-78.294-51.156
		c-21.951-22.245-39.008-49.381-51.158-81.411c-12.164-32.029-18.239-68.201-18.239-108.544c0-46.266,8.007-92.224,24.021-137.905
		c16.016-45.667,38.995-86.746,68.953-123.225c29.944-36.477,66.575-66.13,109.879-88.97c43.29-22.828,92.226-34.254,146.803-34.254
		c36.17,0,69.398,5.936,99.648,17.794c30.249,11.871,56.345,28.915,78.293,51.159c21.937,22.241,38.995,49.378,51.16,81.407
		c12.147,32.03,18.239,68.216,18.239,108.546c0,46.265-7.868,92.389-23.579,138.348c-15.723,45.974-38.563,87.194-68.509,123.671
		c-29.958,36.479-66.589,65.991-109.88,88.526C955.993,836.304,906.768,847.575,851.607,847.575z M939.687,323.539
		c-27.288,0-52.645,7.118-76.069,21.353c-23.438,14.234-43.902,33.225-61.39,56.941c-17.504,23.729-31.139,51.019-40.926,81.853
		c-9.788,30.848-14.681,62.586-14.681,95.199c0,44.485,9.342,80.519,28.027,108.098c18.682,27.585,49.071,41.374,91.194,41.374
		c27.275,0,52.632-7.116,76.07-21.353c23.424-14.236,43.887-33.212,61.389-56.943c17.489-23.715,31.141-50.852,40.929-81.408
		c9.786-30.542,14.679-62.418,14.679-95.642c0-44.487-9.342-80.519-28.025-108.101
		C1012.198,337.329,981.796,323.539,939.687,323.539z"/>
	<path fill="#191919" d="M1275.988,218.552h138.794l-148.583,616.569h-137.902L1275.988,218.552z"/>
	<path fill="#191919" d="M1272.795,833.787l147.691-616.57h399.479l-28.472,114.772h-260.686l-31.141,131.678h230.436
		l-27.578,114.772H1472.09l-61.39,255.348H1272.795z"/>
</g>
</svg>
